<svg xmlns:xlink="http://www.w3.org/1999/xlink" xmlns="http://www.w3.org/2000/svg" width="200" height="224" viewBox="0 0 25 28" fill="none">
<path d="M24.7722 19.6V6.53333L13.4944 0V5.01667L17.9278 7.58333C18.0833 7.66111 18.0833 7.93333 17.9278 8.01111L12.6778 11.0444C12.5222 11.1222 12.3278 11.1222 12.1722 11.0444L6.88333 8.01111C6.72778 7.93333 6.72778 7.66111 6.88333 7.58333L11.3167 5.01667V0L0 6.53333V19.6V19.5222V19.6L4.35556 17.1111V11.9778C4.35556 11.7833 4.55 11.6667 4.74444 11.7833L9.99444 14.8167C10.15 14.8944 10.2278 15.0889 10.2278 15.2444V21.3111C10.2278 21.5056 10.0333 21.6222 9.87778 21.5444L5.44444 18.9778L1.08889 21.4667L12.4056 28L23.7222 21.4667L19.3667 18.9778L14.9333 21.5444C14.7778 21.6222 14.5444 21.5056 14.5444 21.3111V15.2444C14.5444 15.05 14.6611 14.8944 14.7778 14.8167L20.0278 11.7833C20.1833 11.7056 20.4167 11.8222 20.4167 12.0167V17.15L24.7722 19.6Z" fill="#CCCCCC"/>
<path d="M12.4053 28.0001L23.7219 21.4668L19.3664 18.9779L14.9331 21.5446C14.7775 21.6223 14.5442 21.5057 14.5442 21.3112V15.2446C14.5442 15.0501 14.6608 14.8946 14.7775 14.8168L20.0275 11.7834C20.1831 11.7057 20.4164 11.8223 20.4164 12.0168V17.1501L24.7719 19.639V6.53345L12.4053 13.689V28.0001Z" fill="#A6A6A6"/>
<path d="M9.83889 21.5446L5.40556 18.9779L1.08889 21.4668L12.4056 28.0001V13.689L0 6.53345V19.6001V19.5223V19.6001L4.35556 17.1112V11.9779C4.35556 11.7834 4.55 11.6668 4.74444 11.7834L9.99444 14.8168C10.15 14.8946 10.2278 15.089 10.2278 15.2446V21.3112C10.2278 21.5057 10.0333 21.6223 9.83889 21.5446Z" fill="#CCCCCC"/>
<path d="M13.4944 0V5.01667L17.9278 7.58333C18.0833 7.66111 18.0833 7.93333 17.9278 8.01111L12.6778 11.0444C12.5222 11.1222 12.3278 11.1222 12.1722 11.0444L6.88333 8.01111C6.72778 7.93333 6.72778 7.66111 6.88333 7.58333L11.3167 5.01667V0L0 6.53333L12.4056 13.6889L24.8111 6.53333L13.4944 0Z" fill="white"/>
</svg>